<!DOCTYPE svg PUBLIC "-//W3C//DTD SVG 1.1//EN" "http://www.w3.org/Graphics/SVG/1.1/DTD/svg11.dtd">
<!-- Uploaded to: SVG Repo, www.svgrepo.com, Transformed by: SVG Repo Mixer Tools -->
<svg width="800px" height="800px" viewBox="0 0 64.00 64.00" xmlns="http://www.w3.org/2000/svg" xmlns:xlink="http://www.w3.org/1999/xlink" aria-hidden="true" role="img" class="iconify iconify--emojione" preserveAspectRatio="xMidYMid meet" fill="#000000" stroke="#000000" stroke-width="0.64">
<g id="SVGRepo_bgCarrier" stroke-width="0"/>
<g id="SVGRepo_tracerCarrier" stroke-linecap="round" stroke-linejoin="round"/>
<g id="SVGRepo_iconCarrier">
<path d="M22 0c0 16.9-9.1 32-22 32c12.9 0 22 15.1 22 32c0-16.9 9.1-32 22-32c-12.9 0-22-15.1-22-32" fill="#000000"/>
<path d="M53 0c0 8.4-4.6 16-11 16c6.4 0 11 7.6 11 16c0-8.4 4.6-16 11-16c-6.4 0-11-7.6-11-16" fill="#000000"/>
<path d="M48 32c0 8.4-4.6 16-11 16c6.4 0 11 7.6 11 16c0-8.4 4.6-16 11-16c-6.4 0-11-7.6-11-16" fill="#000000"/>
</g>
</svg>